# xmcd
#
# Track frame offsets:
#	150
#	18898
#	35190
#	53227
#	69944
#	84992
#	98944
#	117303
#	132720
#	145608
#	164844
#	178936
#	196198
#	212639
#	226583
#	245518
#	259140
#	273392
#	289952
#	308917
#
# Disc length: 4326 seconds
#
# Revision: 1
# Processed by: cddbd v1.5.2PL0 Copyright (c) Steve Scherf et al.
# Submitted via: audiograbber 1.83.01
#
DISCID=2a10e414
DTITLE=Country Hotdisc - Country Hotdisc 058A
DYEAR=1900
DGENRE=
TTITLE0=You Still Love Me - Dan Seals
TTITLE1=Bedroom Eyes  - Eddie Ravbbit
TTITLE2=You And I - Eddie Rabbit and Crystal Gayle
TTITLE3=Love Me Like You Used To  - Tanya Tucker
TTITLE4=If There Hadn´t Been You  - Billy Dean
TTITLE5=Wchita Linemann  - Glen Campbell
TTITLE6=Fool To Fall  - Pearl River
TTITLE7=Shot Full Of Love  - Nitty Gritty Band
TTITLE8=What´s Forever For  - Michael Martin Murphey
TTITLE9=Senorita  - Don Williams
TTITLE10=A Couple More Years - Dr Hook
TTITLE11=Strawberry Wine  - Deana Carter
TTITLE12=You Decorated My Life - Kenny Rogers
TTITLE13=I Won´t Let You Walk Away - Cleve Francis
TTITLE14=Angel Of The Morning - Juice Newton
TTITLE15=I Wish That I Could Hurt That Way - Graham Brown
TTITLE16=Does She Nees Me  - Pearl River
TTITLE17=More Like The Movies - Dr Hook
TTITLE18=She Belives In Me - Kenny Rogers 
TTITLE19=We Feel In Love  - Cleve Francis and Patty Austin
EXTD=
EXTT0=
EXTT1=
EXTT2=
EXTT3=
EXTT4=
EXTT5=
EXTT6=
EXTT7=
EXTT8=
EXTT9=
EXTT10=
EXTT11=
EXTT12=
EXTT13=
EXTT14=
EXTT15=
EXTT16=
EXTT17=
EXTT18=
EXTT19=
PLAYORDER=
